<?xml version="1.0" encoding="utf-8"?>
<!-- Generator: Adobe Illustrator 25.4.0, SVG Export Plug-In . SVG Version: 6.00 Build 0)  -->
<svg version="1.1" id="Layer_1" xmlns="http://www.w3.org/2000/svg" xmlns:xlink="http://www.w3.org/1999/xlink" x="0px" y="0px"
	 viewBox="0 0 1024 1024" style="enable-background:new 0 0 1024 1024;" xml:space="preserve">
<style type="text/css">
	.st0{fill:#252241;}
	.st1{fill:#322E51;}
	.st2{fill:#517ABD;}
	.st3{fill:#2FA954;}
	.st4{fill:#FABD0D;}
	.st5{fill:#E84436;}
	.st6{fill:#FFFFFF;}
</style>
<g>
	<rect x="0.9" y="0.5" class="st0" width="1023" height="1023"/>
	<path d="M1024.4,1024H0.4V0h1024V1024z M1.4,1023h1022.1V1H1.4V1023z"/>
</g>
<g>
	<circle class="st1" cx="512.4" cy="384.9" r="230.6"/>
</g>
<g id="b170b945-70c0-47b6-a34c-83e925821676">
	<g id="a855ac24-da82-4f87-a155-26beed80bcbb">
		<g>
			<circle class="st2" cx="600.1" cy="300.7" r="21.5"/>
		</g>
		<g>
			<path class="st3" d="M424.4,451.3H467c11.9,0,21.5,9.6,21.5,21.5l0,0c0,11.9-9.6,21.5-21.5,21.5h-42.6
				c-11.9,0-21.5-9.6-21.5-21.5l0,0C402.9,460.9,412.6,451.3,424.4,451.3z"/>
		</g>
		<g>
			<path class="st4" d="M424.7,365.2L424.7,365.2c11.9,0,21.5,9.6,21.5,21.5l0,0c0,11.9-9.6,21.5-21.5,21.5l0,0
				c-11.9,0-21.5-9.6-21.5-21.5l0,0C403.2,374.9,412.8,365.2,424.7,365.2z"/>
		</g>
		<g>
			<path class="st5" d="M424.7,279.2L424.7,279.2c11.9,0,21.5,9.6,21.5,21.5l0,0c0,11.9-9.6,21.5-21.5,21.5l0,0
				c-11.9,0-21.5-9.6-21.5-21.5l0,0C403.2,288.8,412.8,279.2,424.7,279.2z"/>
		</g>
		<g>
			<path class="st6" d="M557.1,494.5c-12,0-21.7-9.7-21.7-21.7c0-12,9.7-21.7,21.7-21.7c11.8,0,21.3-9.5,21.3-21.3v-21.3h-64.3
				c-12,0-21.7-9.7-21.8-21.7c0,0,0,0,0,0v-86c0.4-12,10.5-21.4,22.5-21c11.4,0.4,20.6,9.6,21,21V365h64.3c12,0,21.7,9.7,21.7,21.7
				v43C621.9,465.5,592.9,494.5,557.1,494.5C557.1,494.5,557.1,494.5,557.1,494.5z"/>
		</g>
	</g>
</g>
<g>
	<path class="st6" d="M320.6,860.4c-4.6,2.3-13.9,4.6-25.8,4.6c-27.5,0-48.3-17.4-48.3-49.4c0-30.6,20.7-51.3,51-51.3
		c12.2,0,19.9,2.6,23.2,4.3l-3,10.3c-4.8-2.3-11.6-4.1-19.7-4.1c-22.9,0-38.1,14.6-38.1,40.3c0,23.9,13.8,39.3,37.5,39.3
		c7.7,0,15.5-1.6,20.6-4.1L320.6,860.4z"/>
	<path class="st6" d="M373.8,863.6l-1-8.8h-0.4c-3.9,5.5-11.4,10.4-21.4,10.4c-14.2,0-21.4-10-21.4-20.1c0-17,15.1-26.2,42.2-26.1
		v-1.4c0-5.8-1.6-16.2-15.9-16.2c-6.5,0-13.3,2-18.3,5.2l-2.9-8.4c5.8-3.8,14.2-6.2,23-6.2c21.4,0,26.7,14.6,26.7,28.7v26.2
		c0,6.1,0.3,12,1.2,16.8H373.8z M371.9,827.8c-13.9-0.3-29.7,2.2-29.7,15.8c0,8.3,5.5,12.2,12,12.2c9.1,0,14.9-5.8,17-11.7
		c0.4-1.3,0.7-2.8,0.7-4.1V827.8z"/>
	<path class="st6" d="M404.8,760.8h12.8v102.9h-12.8V760.8z"/>
	<path class="st6" d="M446.1,830.9c0.3,17.2,11.3,24.3,24.1,24.3c9.1,0,14.6-1.6,19.4-3.6l2.2,9.1c-4.5,2-12.2,4.3-23.3,4.3
		c-21.6,0-34.5-14.2-34.5-35.4s12.5-37.8,32.9-37.8c22.9,0,29,20.1,29,33c0,2.6-0.3,4.6-0.4,5.9H446.1z M483.5,821.8
		c0.1-8.1-3.3-20.7-17.7-20.7c-12.9,0-18.5,11.9-19.6,20.7H483.5z"/>
	<path class="st6" d="M511.6,812.5c0-7.2-0.1-13.2-0.6-19h11.3l0.7,11.6h0.3c3.5-6.7,11.6-13.2,23.2-13.2c9.7,0,24.8,5.8,24.8,29.8
		v41.9h-12.8v-40.4c0-11.3-4.2-20.7-16.2-20.7c-8.4,0-14.9,5.9-17.1,13c-0.6,1.6-0.9,3.8-0.9,5.9v42.2h-12.8V812.5z"/>
	<path class="st6" d="M652.6,760.8v84.8c0,6.2,0.1,13.3,0.6,18.1h-11.4l-0.6-12.2h-0.3c-3.9,7.8-12.5,13.8-23.9,13.8
		c-17,0-30-14.3-30-35.6c-0.1-23.3,14.3-37.7,31.4-37.7c10.7,0,18,5.1,21.2,10.7h0.3v-41.9H652.6z M639.8,822.1
		c0-1.6-0.1-3.8-0.6-5.4c-1.9-8.1-8.8-14.8-18.4-14.8c-13.2,0-21,11.6-21,27.1c0,14.2,7,25.9,20.7,25.9c8.5,0,16.4-5.7,18.7-15.2
		c0.4-1.7,0.6-3.5,0.6-5.5V822.1z"/>
	<path class="st6" d="M712.6,863.6l-1-8.8h-0.4c-3.9,5.5-11.4,10.4-21.4,10.4c-14.2,0-21.4-10-21.4-20.1c0-17,15.1-26.2,42.2-26.1
		v-1.4c0-5.8-1.6-16.2-15.9-16.2c-6.5,0-13.3,2-18.3,5.2l-2.9-8.4c5.8-3.8,14.2-6.2,23-6.2c21.4,0,26.7,14.6,26.7,28.7v26.2
		c0,6.1,0.3,12,1.2,16.8H712.6z M710.7,827.8c-13.9-0.3-29.7,2.2-29.7,15.8c0,8.3,5.5,12.2,12,12.2c9.1,0,14.9-5.8,17-11.7
		c0.4-1.3,0.7-2.8,0.7-4.1V827.8z"/>
	<path class="st6" d="M743.6,815.4c0-8.3-0.1-15.4-0.6-21.9h11.2l0.4,13.8h0.6c3.2-9.4,10.9-15.4,19.4-15.4c1.4,0,2.5,0.1,3.6,0.4
		v12c-1.3-0.3-2.6-0.4-4.3-0.4c-9,0-15.4,6.8-17.1,16.4c-0.3,1.7-0.6,3.8-0.6,5.9v37.4h-12.6V815.4z"/>
</g>
</svg>
